# Apple ModelIO OBJ File: nursenadal1
mtllib nursenadal1.mtl
g Cube_Material
v -0.045672 2.38387 0.035776
v 0.045672 2.38387 0.035776
v 0.045672 2.38387 -0.035776
v -0.045672 2.38387 -0.035776
v 0.01564 1.77025 -0.142099
v 0.106985 1.77025 -0.142099
v 0.106985 1.77025 -0.070548
v 0.027464 -2.38387 0.021513
v -0.027464 -2.38387 0.021513
v -0.027464 -2.38387 -0.021513
v 0.027464 -2.38387 -0.021513
v 0.01564 1.77025 -0.070548
v -0.069166 -0.693102 0.076247
v 0.059612 -0.025346 -0.034684
v -0.031732 -0.025346 -0.034684
v -0.160511 -0.693102 0.076247
v -0.160511 -0.693102 0.004695
v -0.031732 -0.025346 -0.106235
v -0.069166 -0.693102 0.004695
v 0.059612 -0.025346 -0.106235
v 0.021394 0.510973 0.111393
v 0.00777 1.16095 0.120417
v -0.083574 1.16095 0.120417
v -0.069951 0.510973 0.111393
v -0.083574 1.16095 0.048865
v -0.069951 0.510973 0.039841
v 0.021394 0.510973 0.039841
v 0.00777 1.16095 0.048865
v -0.045672 -1.55853 -0.08226
v 0.045672 -1.55853 -0.08226
v 0.045672 -1.55853 -0.010708
v -0.045672 -1.55853 -0.010708
v 0.045672 -2.08589 0.035776
v -0.045672 -2.08589 0.035776
v -0.045672 -2.08589 -0.035776
v 0.045672 -2.08589 -0.035776
vn -0.5973 0.506 0.6222
vn 0.5392 0.5515 0.6364
vn 0.5529 0.6473 -0.5246
vn -0.6193 0.5894 -0.5186
vn -0.6264 -0.0392 -0.7785
vn 0.6854 -0.0614 -0.7256
vn 0.7873 0.0098 0.6165
vn 0.56 -0.6058 0.5651
vn -0.56 -0.6058 0.5651
vn -0.56 -0.6058 -0.5651
vn 0.56 -0.6058 -0.5651
vn -0.7342 0.0735 0.6749
vn 0.6382 0.01 0.7698
vn 0.7797 -0.0807 0.6209
vn -0.729 0.0113 0.6844
vn -0.7123 0.0391 0.7008
vn -0.7683 0.0059 -0.64
vn -0.6276 0.074 -0.775
vn 0.6988 -0.0471 -0.7137
vn 0.6905 -0.0015 -0.7233
vn 0.6758 -0.0764 0.7331
vn 0.6537 0.0749 0.753
vn -0.6889 0.1406 0.7111
vn -0.6827 -0.1284 0.7193
vn -0.7632 -0.0299 -0.6454
vn -0.743 0.0556 -0.6669
vn 0.7279 0.1322 -0.6728
vn 0.718 -0.1593 -0.6775
vn -0.6696 -0.0367 -0.7418
vn 0.6997 0.0475 -0.7129
vn 0.7408 0.0478 0.6699
vn -0.7121 -0.0541 0.7
vn 0.6989 -0.0063 0.7151
vn -0.6989 -0.0063 0.7151
vn -0.7173 -0.0684 -0.6934
vn 0.7173 -0.0684 -0.6934
vt 0.335274 0.75219
vt 0.481532 0.75219
vt 0.481532 0.898448
vt 0.335274 0.898448
vt 0.139099 0.717642
vt 0.139099 0.478421
vt 0.272474 0.777664
vt 0.272474 0.538442
vt 0.874315 0.372596
vt 0.874315 0.133374
vt 0.93543 0.000497
vt 0.93543 0.239719
vt 0.671434 0.775848
vt 0.759382 0.775848
vt 0.759382 0.863796
vt 0.671434 0.863796
vt 0.997539 0.133374
vt 0.997539 0.372596
vt 0.936424 0.239719
vt 0.936424 0.000497
vt 0.133872 0.478421
vt 0.133872 0.717642
vt 0.000497 0.777664
vt 0.000497 0.538442
vt 0.381875 0.434237
vt 0.381875 0.741408
vt 0.273468 0.643229
vt 0.273468 0.336058
vt 0.671434 0.415636
vt 0.671434 0.108465
vt 0.770097 0.307668
vt 0.770097 0.000497
vt 0.481532 0.444025
vt 0.481532 0.751196
vt 0.382869 0.643229
vt 0.382869 0.336058
vt 0.562033 0.405848
vt 0.562033 0.098677
vt 0.67044 0.000497
vt 0.67044 0.307668
vt 0.086364 0.946729
vt 0.059201 0.924916
vt 0.059201 0.778658
vt 0.086364 0.800471
vt 0.304726 0.770636
vt 0.33428 0.75219
vt 0.33428 0.898448
vt 0.304726 0.916895
vt 0.03005 0.943362
vt 0.000497 0.924916
vt 0.000497 0.778658
vt 0.03005 0.797104
vt 0.031044 0.800471
vt 0.058207 0.778658
vt 0.031044 0.946729
vt 0.058207 0.924916
vt 0.561039 0.029818
vt 0.561039 0.335064
vt 0.41775 0.000497
vt 0.41775 0.305742
vt 0.937784 0.864947
vt 0.937784 0.559702
vt 0.968147 0.41663
vt 0.968147 0.721875
vt 0.999503 0.559701
vt 0.999503 0.864947
vt 0.969141 0.41663
vt 0.969141 0.721875
vt 0.416756 0.000497
vt 0.416756 0.305742
vt 0.273468 0.335064
vt 0.273468 0.029818
vt 0.880339 0.521226
vt 0.880339 0.778342
vt 0.778109 0.673746
vt 0.778109 0.41663
vt 0.562033 0.765066
vt 0.562033 0.50795
vt 0.667714 0.406841
vt 0.667714 0.663957
vt 0.671434 0.673746
vt 0.671434 0.41663
vt 0.777115 0.517738
vt 0.777115 0.774854
vt 0.771091 0.362209
vt 0.771091 0.105093
vt 0.873321 0.000497
vt 0.873321 0.257613
vt 0.272474 0.055574
vt 0.272474 0.477427
vt 0.136982 0.42235
vt 0.136982 0.000497
vt 0.537983 0.336058
vt 0.537983 0.75791
vt 0.482526 0.893246
vt 0.482526 0.471394
vt 0.881333 0.838482
vt 0.881333 0.41663
vt 0.93679 0.551966
vt 0.93679 0.973819
vt 0.000497 0.477427
vt 0.000497 0.055574
vt 0.135988 0.000497
vt 0.135988 0.42235
vt 0.285357 0.778658
vt 0.285357 0.875043
vt 0.139099 0.875043
vt 0.139099 0.778658
vt 0.538977 0.578328
vt 0.555154 0.673346
vt 0.538977 0.724586
vt 0.555154 0.819604
vt 0.538977 0.431076
vt 0.555154 0.336058
vt 0.555154 0.482316
vt 0.538977 0.577334
vt 0.658418 0.912318
vt 0.562033 0.912318
vt 0.562033 0.76606
vt 0.658418 0.76606
vt 0.778109 0.808491
vt 0.808664 0.779336
vt 0.778109 0.896439
vt 0.808664 0.925594
vt 0.809658 0.808491
vt 0.840212 0.779336
vt 0.809658 0.896439
vt 0.840212 0.925594
vt 0.087358 0.807813
vt 0.117913 0.778658
vt 0.087358 0.895761
vt 0.117913 0.924916
vt 0.841206 0.808491
vt 0.871761 0.779336
vt 0.841206 0.896439
vt 0.871761 0.925594
usemtl Material
f 1/1/1 2/2/2 3/3/3
f 1/1/1 3/3/3 4/4/4
f 5/5/5 4/6/4 6/7/6
f 4/6/4 3/8/3 6/7/6
f 6/9/6 3/10/3 2/11/2
f 6/9/6 2/11/2 7/12/7
f 8/13/8 9/14/9 10/15/10
f 8/13/8 10/15/10 11/16/11
f 12/17/12 1/18/1 4/19/4
f 12/17/12 4/19/4 5/20/5
f 7/21/7 2/22/2 1/23/1
f 7/21/7 1/23/1 12/24/12
f 13/25/13 14/26/14 15/27/15
f 13/25/13 15/27/15 16/28/16
f 16/29/16 15/30/15 17/31/17
f 15/30/15 18/32/18 17/31/17
f 19/33/19 20/34/20 14/35/14
f 19/33/19 14/35/14 13/36/13
f 17/37/17 18/38/18 20/39/20
f 17/37/17 20/39/20 19/40/19
f 21/41/21 22/42/22 23/43/23
f 21/41/21 23/43/23 24/44/24
f 24/45/24 23/46/23 25/47/25
f 24/45/24 25/47/25 26/48/26
f 27/49/27 28/50/28 22/51/22
f 27/49/27 22/51/22 21/52/21
f 26/53/26 25/54/25 27/55/27
f 25/54/25 28/56/28 27/55/27
f 18/57/18 26/58/26 20/59/20
f 26/58/26 27/60/27 20/59/20
f 20/61/20 27/62/27 21/63/21
f 20/61/20 21/63/21 14/64/14
f 15/65/15 24/66/24 18/67/18
f 24/66/24 26/68/26 18/67/18
f 14/69/14 21/70/21 24/71/24
f 14/69/14 24/71/24 15/72/15
f 29/73/29 17/74/17 19/75/19
f 29/73/29 19/75/19 30/76/30
f 30/77/30 19/78/19 13/79/13
f 30/77/30 13/79/13 31/80/31
f 32/81/32 16/82/16 17/83/17
f 32/81/32 17/83/17 29/84/29
f 31/85/31 13/86/13 16/87/16
f 31/85/31 16/87/16 32/88/32
f 22/89/22 7/90/7 12/91/12
f 22/89/22 12/91/12 23/92/23
f 23/93/23 12/94/12 5/95/5
f 23/93/23 5/95/5 25/96/25
f 28/97/28 6/98/6 7/99/7
f 28/97/28 7/99/7 22/100/22
f 25/101/25 5/102/5 6/103/6
f 25/101/25 6/103/6 28/104/28
f 33/105/33 31/106/31 32/107/32
f 33/105/33 32/107/32 34/108/34
f 34/109/34 32/110/32 35/111/35
f 32/110/32 29/112/29 35/111/35
f 36/113/36 30/114/30 31/115/31
f 36/113/36 31/115/31 33/116/33
f 35/117/35 29/118/29 30/119/30
f 35/117/35 30/119/30 36/120/36
f 10/121/10 35/122/35 11/123/11
f 35/122/35 36/124/36 11/123/11
f 11/125/11 36/126/36 8/127/8
f 36/126/36 33/128/33 8/127/8
f 9/129/9 34/130/34 10/131/10
f 34/130/34 35/132/35 10/131/10
f 8/133/8 33/134/33 9/135/9
f 33/134/33 34/136/34 9/135/9
s off
